PathFileType	4	(X/Y/Z)	/Users/visionmauri/Downloads/Videos/OAW06-top_Sports2D/OAW06-top_Sports2D_px_person00.trc
DataRate	CameraRate	NumFrames	NumMarkers	Units	OrigDataRate	OrigDataStartFrame	OrigNumFrames
30.0	30.0	6	22	m	30.0	531	2127
Frame#	Time	Hip			RHip			RKnee			RAnkle			RBigToe			RSmallToe			RHeel			LHip			LKnee			LAnkle			LBigToe			LSmallToe			LHeel			Neck			Head			Nose			RShoulder			RElbow			RWrist			LShoulder			LElbow			LWrist			
		X1	Y1	Z1	X2	Y2	Z2	X3	Y3	Z3	X4	Y4	Z4	X5	Y5	Z5	X6	Y6	Z6	X7	Y7	Z7	X8	Y8	Z8	X9	Y9	Z9	X10	Y10	Z10	X11	Y11	Z11	X12	Y12	Z12	X13	Y13	Z13	X14	Y14	Z14	X15	Y15	Z15	X16	Y16	Z16	X17	Y17	Z17	X18	Y18	Z18	X19	Y19	Z19	X20	Y20	Z20	X21	Y21	Z21	X22	Y22	Z22
531	17.708325493885233	567.7503484028745	1430.0682685308277	0.0	637.2797711348094	1430.2601968326026	0.0	608.5061960072569	1649.1152902041829	0.0	599.168054235511	1881.510755095465	0.0	577.9869377877441	1859.9403442659705	0.0	622.896600183377	1876.7314317980902	0.0	594.9482028191409	1905.0050709607244	0.0	504.6740829628749	1436.3961074262693	0.0	511.06229610928716	1662.550857213058	0.0	518.2870544700485	1882.829164801579	0.0	530.3949633063854	1845.273785806023	0.0	490.64783963826284	1855.284297277849	0.0	525.9783051778559	1882.1644868108592	0.0	568.1096054858589	1041.725926579263	0.0	559.0436495347373	877.3575179301166	0.0	560.2358409140217	971.0623664630725	0.0	685.7479254495323	1104.0074217881295	0.0	708.8452789368158	1294.5681474603964	0.0	708.8437815493003	1424.4672462542796	0.0	452.1909234738096	1111.004837088797	0.0	421.32589013089824	1300.8592499496622	0.0	403.21054236778883	1445.8651683520725	0.0
532	17.741674506114773	566.0684191709955	1426.3896559115674	0.0	635.4624916767868	1428.315639182884	0.0	606.620474493702	1638.7974801129872	0.0	595.4795810559764	1863.2526807493093	0.0	577.8342735170005	1838.278443234997	0.0	619.8077797932841	1851.9778884966793	0.0	590.4150856109433	1887.2319738895358	0.0	503.41101488649383	1433.2748457988753	0.0	509.94021002644723	1651.10177243318	0.0	518.1150895984382	1878.9684324833847	0.0	533.2420122729811	1843.3463648565692	0.0	488.52280228495863	1845.3405242182332	0.0	526.1075610430995	1881.427335691235	0.0	567.8839994460513	1039.0369007837746	0.0	561.6593096564475	875.0086048942406	0.0	562.5276901086601	969.4755523852275	0.0	683.9628201896052	1102.3504771571654	0.0	705.9163115733428	1291.4553749313163	0.0	709.3758869860269	1423.0588909736439	0.0	452.11068525187164	1107.363312135852	0.0	421.49327206085474	1294.3328709124344	0.0	403.70079501858305	1439.9629478689194	0.0
533	17.775023518344312	565.1091534462117	1422.1968693577728	0.0	633.7897705603411	1425.8666922536042	0.0	605.3149931342767	1629.4663704176444	0.0	593.0899198817885	1842.141097722504	0.0	578.3792103819588	1820.5447335699507	0.0	619.6491296455116	1832.8445493275221	0.0	586.4658153236502	1867.0347269808985	0.0	502.54470703504893	1429.7184133782712	0.0	509.0695181573993	1645.191222896554	0.0	517.8088901991533	1882.8693052948415	0.0	534.7246149083554	1843.184579185987	0.0	488.07003279236824	1846.1883620447336	0.0	526.5100479370254	1889.7573659983555	0.0	568.5358971149168	1036.6281818018233	0.0	565.2332735716769	874.5245884197918	0.0	566.5880679942801	969.9433618705526	0.0	683.0111122191528	1100.5568273054664	0.0	703.8708405748483	1288.1731019515075	0.0	710.057537751662	1419.9776254667324	0.0	452.1130110465023	1104.3191550891265	0.0	421.56527232190444	1288.8088379419296	0.0	404.1322575080295	1432.8073974713282	0.0
534	17.80837253057385	564.7421833748808	1416.7414400078444	0.0	631.8580618020948	1421.2756119971298	0.0	603.6936718996072	1621.1287155528428	0.0	591.1436338463594	1823.8450131014458	0.0	578.9209973072913	1810.0796371957629	0.0	620.3820804556907	1822.2089402767833	0.0	583.2364725913034	1849.4776370083368	0.0	501.6619555318542	1424.2362739982361	0.0	508.3417692327769	1639.8695841170434	0.0	517.2949033261249	1882.7794431118139	0.0	533.891066297264	1836.2563803501482	0.0	487.9578827255268	1842.6756283912653	0.0	526.6443795421021	1889.2921312894375	0.0	569.4775443610064	1035.1186629208605	0.0	568.2145478963673	875.1924797593718	0.0	570.406340609202	970.060174473186	0.0	683.2499405893227	1098.8760606525673	0.0	702.7777025510339	1284.8756289225844	0.0	710.2129936726571	1417.2253991958992	0.0	452.7886670031304	1101.909728002559	0.0	421.458609374426	1284.0884961034337	0.0	404.6663088670842	1424.7857510063657	0.0
535	17.841721542803388	564.4364038752889	1410.4987121599495	0.0	630.1948357147203	1414.9935459912647	0.0	601.6635378353826	1613.7251505906381	0.0	589.4828937515583	1812.9154705258134	0.0	579.2656227517646	1803.2131838302273	0.0	620.2478613205363	1814.74342893006	0.0	582.1083866977285	1838.9522189704144	0.0	500.81445228484904	1417.2293982457775	0.0	508.0751032863101	1631.136816396008	0.0	516.6943109270453	1873.338433297951	0.0	531.0269738975398	1822.0381190270127	0.0	487.8640368880873	1827.3443910711785	0.0	526.4078707470574	1873.3371782341987	0.0	570.4272561065706	1033.9286781333506	0.0	569.8214916852986	875.212829769621	0.0	572.7669976851153	968.1674144196318	0.0	683.9380780880091	1097.1882744743775	0.0	701.9367259273168	1281.6859805522915	0.0	709.4252171478008	1415.3761327260663	0.0	454.66907871656093	1099.3847494615702	0.0	421.3017310158308	1279.4002728075527	0.0	405.9245106610933	1416.9856739466923	0.0
536	17.875070555032927	564.018179933439	1404.0410746142827	0.0	629.2634134593359	1408.7828739465583	0.0	599.8790899523386	1607.687491649306	0.0	588.504152732982	1809.8319908480225	0.0	579.6177200384966	1797.9590581192422	0.0	619.641077623702	1808.8392109803078	0.0	582.4483275253177	1837.1937395325008	0.0	500.4064848056847	1410.4804469790831	0.0	508.120856056401	1620.6672752718152	0.0	516.2137690326306	1864.8411223565192	0.0	527.2933580523921	1807.7927070367925	0.0	487.82495551808444	1810.8832793424135	0.0	526.2357958663372	1856.1290192020915	0.0	571.6941387101448	1031.7991007256153	0.0	571.5965854818003	873.5267187321094	0.0	575.327357712439	965.1114110924849	0.0	684.1032327489086	1095.0301446479668	0.0	700.6631794624958	1278.338425283923	0.0	708.3439213443096	1412.2392378301495	0.0	457.5279415822154	1095.9454676124474	0.0	421.94559389370414	1273.7752317236113	0.0	407.751249205301	1409.2752839647592	0.0
